%TF.GenerationSoftware,KiCad,Pcbnew,(5.1.6)-1*%
%TF.CreationDate,2021-03-03T13:24:50-05:00*%
%TF.ProjectId,Super EGA-120,53757065-7220-4454-9741-2d3132302e6b,rev?*%
%TF.SameCoordinates,Original*%
%TF.FileFunction,Legend,Top*%
%TF.FilePolarity,Positive*%
%FSLAX46Y46*%
G04 Gerber Fmt 4.6, Leading zero omitted, Abs format (unit mm)*
G04 Created by KiCad (PCBNEW (5.1.6)-1) date 2021-03-03 13:24:50*
%MOMM*%
%LPD*%
G01*
G04 APERTURE LIST*
%ADD10C,0.150000*%
%ADD11C,0.250000*%
G04 APERTURE END LIST*
D10*
X164172285Y-103735142D02*
X164129428Y-103782761D01*
X164000857Y-103830380D01*
X163915142Y-103830380D01*
X163786571Y-103782761D01*
X163700857Y-103687523D01*
X163658000Y-103592285D01*
X163615142Y-103401809D01*
X163615142Y-103258952D01*
X163658000Y-103068476D01*
X163700857Y-102973238D01*
X163786571Y-102878000D01*
X163915142Y-102830380D01*
X164000857Y-102830380D01*
X164129428Y-102878000D01*
X164172285Y-102925619D01*
X164986571Y-103830380D02*
X164558000Y-103830380D01*
X164558000Y-102830380D01*
X165458000Y-102830380D02*
X165629428Y-102830380D01*
X165715142Y-102878000D01*
X165800857Y-102973238D01*
X165843714Y-103163714D01*
X165843714Y-103497047D01*
X165800857Y-103687523D01*
X165715142Y-103782761D01*
X165629428Y-103830380D01*
X165458000Y-103830380D01*
X165372285Y-103782761D01*
X165286571Y-103687523D01*
X165243714Y-103497047D01*
X165243714Y-103163714D01*
X165286571Y-102973238D01*
X165372285Y-102878000D01*
X165458000Y-102830380D01*
X166229428Y-103830380D02*
X166229428Y-102830380D01*
X166743714Y-103830380D01*
X166743714Y-102830380D01*
X167172285Y-103306571D02*
X167472285Y-103306571D01*
X167600857Y-103830380D02*
X167172285Y-103830380D01*
X167172285Y-102830380D01*
X167600857Y-102830380D01*
X147880095Y-108374571D02*
X147880095Y-106874571D01*
X148851523Y-108374571D02*
X148122952Y-107517428D01*
X148851523Y-106874571D02*
X147880095Y-107731714D01*
X149580095Y-107588857D02*
X150146761Y-107588857D01*
X150389619Y-108374571D02*
X149580095Y-108374571D01*
X149580095Y-106874571D01*
X150389619Y-106874571D01*
X151037238Y-107946000D02*
X151846761Y-107946000D01*
X150875333Y-108374571D02*
X151442000Y-106874571D01*
X152008666Y-108374571D01*
X153789619Y-108303142D02*
X154032476Y-108374571D01*
X154437238Y-108374571D01*
X154599142Y-108303142D01*
X154680095Y-108231714D01*
X154761047Y-108088857D01*
X154761047Y-107946000D01*
X154680095Y-107803142D01*
X154599142Y-107731714D01*
X154437238Y-107660285D01*
X154113428Y-107588857D01*
X153951523Y-107517428D01*
X153870571Y-107446000D01*
X153789619Y-107303142D01*
X153789619Y-107160285D01*
X153870571Y-107017428D01*
X153951523Y-106946000D01*
X154113428Y-106874571D01*
X154518190Y-106874571D01*
X154761047Y-106946000D01*
X155327714Y-107374571D02*
X155732476Y-108374571D01*
X156137238Y-107374571D02*
X155732476Y-108374571D01*
X155570571Y-108731714D01*
X155489619Y-108803142D01*
X155327714Y-108874571D01*
X156703904Y-108303142D02*
X156865809Y-108374571D01*
X157189619Y-108374571D01*
X157351523Y-108303142D01*
X157432476Y-108160285D01*
X157432476Y-108088857D01*
X157351523Y-107946000D01*
X157189619Y-107874571D01*
X156946761Y-107874571D01*
X156784857Y-107803142D01*
X156703904Y-107660285D01*
X156703904Y-107588857D01*
X156784857Y-107446000D01*
X156946761Y-107374571D01*
X157189619Y-107374571D01*
X157351523Y-107446000D01*
X157918190Y-107374571D02*
X158565809Y-107374571D01*
X158161047Y-106874571D02*
X158161047Y-108160285D01*
X158242000Y-108303142D01*
X158403904Y-108374571D01*
X158565809Y-108374571D01*
X159780095Y-108303142D02*
X159618190Y-108374571D01*
X159294380Y-108374571D01*
X159132476Y-108303142D01*
X159051523Y-108160285D01*
X159051523Y-107588857D01*
X159132476Y-107446000D01*
X159294380Y-107374571D01*
X159618190Y-107374571D01*
X159780095Y-107446000D01*
X159861047Y-107588857D01*
X159861047Y-107731714D01*
X159051523Y-107874571D01*
X160589619Y-108374571D02*
X160589619Y-107374571D01*
X160589619Y-107517428D02*
X160670571Y-107446000D01*
X160832476Y-107374571D01*
X161075333Y-107374571D01*
X161237238Y-107446000D01*
X161318190Y-107588857D01*
X161318190Y-108374571D01*
X161318190Y-107588857D02*
X161399142Y-107446000D01*
X161561047Y-107374571D01*
X161803904Y-107374571D01*
X161965809Y-107446000D01*
X162046761Y-107588857D01*
X162046761Y-108374571D01*
X162775333Y-108303142D02*
X162937238Y-108374571D01*
X163261047Y-108374571D01*
X163422952Y-108303142D01*
X163503904Y-108160285D01*
X163503904Y-108088857D01*
X163422952Y-107946000D01*
X163261047Y-107874571D01*
X163018190Y-107874571D01*
X162856285Y-107803142D01*
X162775333Y-107660285D01*
X162775333Y-107588857D01*
X162856285Y-107446000D01*
X163018190Y-107374571D01*
X163261047Y-107374571D01*
X163422952Y-107446000D01*
X166337238Y-108374571D02*
X165527714Y-108374571D01*
X165527714Y-106874571D01*
X166661047Y-107374571D02*
X167308666Y-107374571D01*
X166903904Y-106874571D02*
X166903904Y-108160285D01*
X166984857Y-108303142D01*
X167146761Y-108374571D01*
X167308666Y-108374571D01*
X168603904Y-108374571D02*
X168603904Y-106874571D01*
X168603904Y-108303142D02*
X168442000Y-108374571D01*
X168118190Y-108374571D01*
X167956285Y-108303142D01*
X167875333Y-108231714D01*
X167794380Y-108088857D01*
X167794380Y-107660285D01*
X167875333Y-107517428D01*
X167956285Y-107446000D01*
X168118190Y-107374571D01*
X168442000Y-107374571D01*
X168603904Y-107446000D01*
X153390857Y-104276571D02*
X153276571Y-104219428D01*
X153048000Y-104219428D01*
X152933714Y-104276571D01*
X152819428Y-104390857D01*
X152762285Y-104505142D01*
X152762285Y-104733714D01*
X152819428Y-104848000D01*
X152933714Y-104962285D01*
X153048000Y-105019428D01*
X153276571Y-105019428D01*
X153390857Y-104962285D01*
X153162285Y-103819428D02*
X152876571Y-103876571D01*
X152590857Y-104048000D01*
X152419428Y-104333714D01*
X152362285Y-104619428D01*
X152419428Y-104905142D01*
X152590857Y-105190857D01*
X152876571Y-105362285D01*
X153162285Y-105419428D01*
X153448000Y-105362285D01*
X153733714Y-105190857D01*
X153905142Y-104905142D01*
X153962285Y-104619428D01*
X153905142Y-104333714D01*
X153733714Y-104048000D01*
X153448000Y-103876571D01*
X153162285Y-103819428D01*
X155105142Y-105190857D02*
X154419428Y-105190857D01*
X154762285Y-105190857D02*
X154762285Y-103990857D01*
X154648000Y-104162285D01*
X154533714Y-104276571D01*
X154419428Y-104333714D01*
X155676571Y-105190857D02*
X155905142Y-105190857D01*
X156019428Y-105133714D01*
X156076571Y-105076571D01*
X156190857Y-104905142D01*
X156248000Y-104676571D01*
X156248000Y-104219428D01*
X156190857Y-104105142D01*
X156133714Y-104048000D01*
X156019428Y-103990857D01*
X155790857Y-103990857D01*
X155676571Y-104048000D01*
X155619428Y-104105142D01*
X155562285Y-104219428D01*
X155562285Y-104505142D01*
X155619428Y-104619428D01*
X155676571Y-104676571D01*
X155790857Y-104733714D01*
X156019428Y-104733714D01*
X156133714Y-104676571D01*
X156190857Y-104619428D01*
X156248000Y-104505142D01*
X156933714Y-104505142D02*
X156819428Y-104448000D01*
X156762285Y-104390857D01*
X156705142Y-104276571D01*
X156705142Y-104219428D01*
X156762285Y-104105142D01*
X156819428Y-104048000D01*
X156933714Y-103990857D01*
X157162285Y-103990857D01*
X157276571Y-104048000D01*
X157333714Y-104105142D01*
X157390857Y-104219428D01*
X157390857Y-104276571D01*
X157333714Y-104390857D01*
X157276571Y-104448000D01*
X157162285Y-104505142D01*
X156933714Y-104505142D01*
X156819428Y-104562285D01*
X156762285Y-104619428D01*
X156705142Y-104733714D01*
X156705142Y-104962285D01*
X156762285Y-105076571D01*
X156819428Y-105133714D01*
X156933714Y-105190857D01*
X157162285Y-105190857D01*
X157276571Y-105133714D01*
X157333714Y-105076571D01*
X157390857Y-104962285D01*
X157390857Y-104733714D01*
X157333714Y-104619428D01*
X157276571Y-104562285D01*
X157162285Y-104505142D01*
X157790857Y-103990857D02*
X158590857Y-103990857D01*
X158076571Y-105190857D01*
X159575714Y-99274380D02*
X160718571Y-99274380D01*
X160147142Y-100274380D02*
X160147142Y-99274380D01*
X161385238Y-100274380D02*
X161385238Y-99274380D01*
X162051904Y-99988666D01*
X162718571Y-99274380D01*
X162718571Y-100274380D01*
X153496285Y-102250761D02*
X153496285Y-100917428D01*
X153496285Y-101107904D02*
X153591523Y-101012666D01*
X153782000Y-100917428D01*
X154067714Y-100917428D01*
X154258190Y-101012666D01*
X154353428Y-101203142D01*
X154353428Y-102250761D01*
X154353428Y-101203142D02*
X154448666Y-101012666D01*
X154639142Y-100917428D01*
X154924857Y-100917428D01*
X155115333Y-101012666D01*
X155210571Y-101203142D01*
X155210571Y-102250761D01*
X157020095Y-102250761D02*
X157020095Y-101203142D01*
X156924857Y-101012666D01*
X156734380Y-100917428D01*
X156353428Y-100917428D01*
X156162952Y-101012666D01*
X157020095Y-102155523D02*
X156829619Y-102250761D01*
X156353428Y-102250761D01*
X156162952Y-102155523D01*
X156067714Y-101965047D01*
X156067714Y-101774571D01*
X156162952Y-101584095D01*
X156353428Y-101488857D01*
X156829619Y-101488857D01*
X157020095Y-101393619D01*
X157686761Y-100917428D02*
X158448666Y-100917428D01*
X157972476Y-100250761D02*
X157972476Y-101965047D01*
X158067714Y-102155523D01*
X158258190Y-102250761D01*
X158448666Y-102250761D01*
X159877238Y-102155523D02*
X159686761Y-102250761D01*
X159305809Y-102250761D01*
X159115333Y-102155523D01*
X159020095Y-101965047D01*
X159020095Y-101203142D01*
X159115333Y-101012666D01*
X159305809Y-100917428D01*
X159686761Y-100917428D01*
X159877238Y-101012666D01*
X159972476Y-101203142D01*
X159972476Y-101393619D01*
X159020095Y-101584095D01*
X160829619Y-101488857D02*
X162353428Y-101488857D01*
X164353428Y-102250761D02*
X163210571Y-102250761D01*
X163781999Y-102250761D02*
X163781999Y-100250761D01*
X163591523Y-100536476D01*
X163401047Y-100726952D01*
X163210571Y-100822190D01*
X165020095Y-100250761D02*
X166258190Y-100250761D01*
X165591523Y-101012666D01*
X165877238Y-101012666D01*
X166067714Y-101107904D01*
X166162952Y-101203142D01*
X166258190Y-101393619D01*
X166258190Y-101869809D01*
X166162952Y-102060285D01*
X166067714Y-102155523D01*
X165877238Y-102250761D01*
X165305809Y-102250761D01*
X165115333Y-102155523D01*
X165020095Y-102060285D01*
X167020095Y-100441238D02*
X167115333Y-100346000D01*
X167305809Y-100250761D01*
X167782000Y-100250761D01*
X167972476Y-100346000D01*
X168067714Y-100441238D01*
X168162952Y-100631714D01*
X168162952Y-100822190D01*
X168067714Y-101107904D01*
X166924857Y-102250761D01*
X168162952Y-102250761D01*
D11*
X147828285Y-101203142D02*
X148494952Y-101203142D01*
X148780666Y-102250761D02*
X147828285Y-102250761D01*
X147828285Y-100250761D01*
X148780666Y-100250761D01*
X150685428Y-100346000D02*
X150494952Y-100250761D01*
X150209238Y-100250761D01*
X149923523Y-100346000D01*
X149733047Y-100536476D01*
X149637809Y-100726952D01*
X149542571Y-101107904D01*
X149542571Y-101393619D01*
X149637809Y-101774571D01*
X149733047Y-101965047D01*
X149923523Y-102155523D01*
X150209238Y-102250761D01*
X150399714Y-102250761D01*
X150685428Y-102155523D01*
X150780666Y-102060285D01*
X150780666Y-101393619D01*
X150399714Y-101393619D01*
X151542571Y-101679333D02*
X152494952Y-101679333D01*
X151352095Y-102250761D02*
X152018761Y-100250761D01*
X152685428Y-102250761D01*
M02*
