M48
; DRILL file {KiCad (5.1.6)-1} date 03/03/21 13:24:56
; FORMAT={-:-/ absolute / inch / decimal}
; #@! TF.CreationDate,2021-03-03T13:24:56-05:00
; #@! TF.GenerationSoftware,Kicad,Pcbnew,(5.1.6)-1
FMAT,2
INCH
T1C0.0315
T2C0.0394
%
G90
G05
T1
X5.33Y-3.84
X5.33Y-4.14
X5.93Y-3.84
X5.93Y-4.14
T2
X5.03Y-3.43
X5.03Y-3.53
X5.13Y-3.43
X5.13Y-3.53
X5.23Y-3.43
X5.23Y-3.53
X5.33Y-3.43
X5.33Y-3.53
X5.43Y-3.43
X5.43Y-3.53
X5.53Y-3.43
X5.53Y-3.53
X5.63Y-3.43
X5.63Y-3.53
X5.73Y-3.43
X5.73Y-3.53
X5.83Y-3.43
X5.83Y-3.53
X5.93Y-3.43
X5.93Y-3.53
X6.03Y-3.43
X6.03Y-3.53
X6.13Y-3.43
X6.13Y-3.53
X6.23Y-3.43
X6.23Y-3.53
X6.33Y-3.43
X6.33Y-3.53
X6.43Y-3.43
X6.43Y-3.53
X6.53Y-3.43
X6.53Y-3.53
T0
M30
